<svg id="SvgjsSvg6121" width="41" height="41" xmlns="http://www.w3.org/2000/svg" version="1.1" xmlns:xlink="http://www.w3.org/1999/xlink" xmlns:svgjs="http://svgjs.com/svgjs" viewBox="0 0 41 41" fill="#f16d7f" opacity="1"><defs id="SvgjsDefs6122"></defs><svg version="1.1" xmlns="http://www.w3.org/2000/svg" xmlns:xlink="http://www.w3.org/1999/xlink" width="41" height="41"><g><path fill="#f16d7f" stroke="none" paint-order="stroke fill markers" fill-rule="evenodd" d=" M 25.776477813720703 20.4619237780571 C 23.882766723632812 20.4619237780571 22.317977905273438 22.0895574092865 22.317977905273438 25.016151070594788 C 22.338481903076172 27.919240295886993 23.882766723632812 29.368745267391205 25.665374755859375 29.368745267391205 C 27.495094299316406 29.368745267391205 29.080291748046875 27.850863754749298 29.080291748046875 24.791207790374756 C 29.08115005493164 22.024677395820618 27.782054901123047 20.4619237780571 25.776477813720703 20.4619237780571 Z M 25.710674285888672 28.18594765663147 C 24.520870208740234 28.18594765663147 23.816104888916016 26.779760777950287 23.83832550048828 24.927766621112823 C 23.83832550048828 23.096751630306244 24.499507904052734 21.64569264650345 25.710674285888672 21.64569264650345 C 27.053447723388672 21.64569264650345 27.55994415283203 23.118313550949097 27.55994415283203 24.88347727060318 C 27.55994415283203 26.80132269859314 26.98764419555664 28.18594765663147 25.710674285888672 28.18594765663147 Z M 19.763275146484375 18.786698520183563 C 19.763275146484375 16.01919686794281 18.441768646240234 14.454889237880707 16.437145233154297 14.454889237880707 C 14.54257583618164 14.454889237880707 12.979503631591797 16.0858251452446 12.979503631591797 18.98736035823822 C 13.001724243164062 21.911234498023987 14.543434143066406 23.362487733364105 16.326995849609375 23.362487733364105 C 18.177886962890625 23.362487733364105 19.763275146484375 21.84480047225952 19.763275146484375 18.786698520183563 Z M 14.52121353149414 18.921509087085724 C 14.52121353149414 17.08952283859253 15.16189193725586 15.639046609401703 16.371341705322266 15.639046609401703 C 17.71497344970703 15.639046609401703 18.22146987915039 17.11225026845932 18.22146987915039 18.877413988113403 C 18.22146987915039 20.796036422252655 17.648311614990234 22.180661380290985 16.371341705322266 22.180661380290985 C 15.16189193725586 22.178913116455078 14.47686767578125 20.772531986236572 14.52121353149414 18.921509087085724 Z M 24.60889434814453 14.610484719276428 C 24.60889434814453 14.610484719276428 16.194530487060547 29.32950645685196 16.194530487060547 29.32950645685196 C 16.194530487060547 29.32950645685196 17.427059173583984 29.32950645685196 17.427059173583984 29.32950645685196 C 17.427059173583984 29.32950645685196 25.842185974121094 14.610484719276428 25.842185974121094 14.610484719276428 C 25.842185974121094 14.610484719276428 24.60889434814453 14.610484719276428 24.60889434814453 14.610484719276428 Z M 37.57581329345703 24.92427009344101 C 37.57581329345703 24.92427009344101 40.98729705810547 21.956300854682922 40.98729705810547 21.956300854682922 C 40.98729705810547 21.956300854682922 37.57581329345703 18.991633892059326 37.57581329345703 18.991633892059326 C 37.57581329345703 18.991633892059326 39.78547668457031 15.025406002998352 39.78547668457031 15.025406002998352 C 39.78547668457031 15.025406002998352 35.57700729370117 13.425356090068817 35.57700729370117 13.425356090068817 C 35.57700729370117 13.425356090068817 36.30904769897461 8.930958271026611 36.30904769897461 8.930958271026611 C 36.30904769897461 8.930958271026611 31.81533432006836 8.885697662830353 31.81533432006836 8.885697662830353 C 31.81533432006836 8.885697662830353 30.9945068359375 4.40509170293808 30.9945068359375 4.40509170293808 C 30.9945068359375 4.40509170293808 26.754470825195312 5.916757166385651 26.754470825195312 5.916757166385651 C 26.754470825195312 5.916757166385651 24.466224670410156 1.995595633983612 24.466224670410156 1.995595633983612 C 24.466224670410156 1.995595633983612 20.994850158691406 4.893440067768097 20.994850158691406 4.893440067768097 C 20.994850158691406 4.893440067768097 17.523571014404297 1.995595633983612 17.523571014404297 1.995595633983612 C 17.523571014404297 1.995595633983612 15.23532485961914 5.915980160236359 15.23532485961914 5.915980160236359 C 15.23532485961914 5.915980160236359 10.996147155761719 4.404508948326111 10.996147155761719 4.404508948326111 C 10.996147155761719 4.404508948326111 10.174365997314453 8.884726405143738 10.174365997314453 8.884726405143738 C 10.174365997314453 8.884726405143738 5.679889678955078 8.929015755653381 5.679889678955078 8.929015755653381 C 5.679889678955078 8.929015755653381 6.412693023681641 13.42360782623291 6.412693023681641 13.42360782623291 C 6.412693023681641 13.42360782623291 2.203460693359375 15.023657739162445 2.203460693359375 15.023657739162445 C 2.203460693359375 15.023657739162445 4.413124084472656 18.98930287361145 4.413124084472656 18.98930287361145 C 4.413124084472656 18.98930287361145 1.0016403198242188 21.956300854682922 1.0016403198242188 21.956300854682922 C 1.0016403198242188 21.956300854682922 4.413124084472656 24.922716081142426 4.413124084472656 24.922716081142426 C 4.413124084472656 24.922716081142426 2.203460693359375 28.8889439702034 2.203460693359375 28.8889439702034 C 2.203460693359375 28.8889439702034 6.411834716796875 30.48743987083435 6.411834716796875 30.48743987083435 C 6.411834716796875 30.48743987083435 5.679889678955078 34.98455721139908 5.679889678955078 34.98455721139908 C 5.679889678955078 34.98455721139908 10.173507690429688 35.02942931652069 10.173507690429688 35.02942931652069 C 10.173507690429688 35.02942931652069 10.994430541992188 39.50984102487564 10.994430541992188 39.50984102487564 C 10.994430541992188 39.50984102487564 15.234466552734375 37.9975928068161 15.234466552734375 37.9975928068161 C 15.234466552734375 37.9975928068161 17.52271270751953 41.91875433921814 17.52271270751953 41.91875433921814 C 17.52271270751953 41.91875433921814 20.99399185180664 39.020909905433655 20.99399185180664 39.020909905433655 C 20.99399185180664 39.020909905433655 24.464508056640625 41.91875433921814 24.464508056640625 41.91875433921814 C 24.464508056640625 41.91875433921814 26.75275421142578 37.9975928068161 26.75275421142578 37.9975928068161 C 26.75275421142578 37.9975928068161 30.991931915283203 39.51061803102493 30.991931915283203 39.51061803102493 C 30.991931915283203 39.51061803102493 31.812854766845703 35.03020632266998 31.812854766845703 35.03020632266998 C 31.812854766845703 35.03020632266998 36.30733108520508 34.98455721139908 36.30733108520508 34.98455721139908 C 36.30733108520508 34.98455721139908 35.574527740478516 30.49074214696884 35.574527740478516 30.49074214696884 C 35.574527740478516 30.49074214696884 39.78376007080078 28.889915227890015 39.78376007080078 28.889915227890015 C 39.78376007080078 28.889915227890015 37.57581329345703 24.92427009344101 37.57581329345703 24.92427009344101 Z M 34.910770416259766 28.69080740213394 C 34.910770416259766 28.69080740213394 33.451839447021484 29.245589792728424 33.451839447021484 29.245589792728424 C 33.451839447021484 29.245589792728424 33.70561218261719 30.80484688282013 33.70561218261719 30.80484688282013 C 33.70561218261719 30.80484688282013 34.07716369628906 33.08749669790268 34.07716369628906 33.08749669790268 C 34.07716369628906 33.08749669790268 31.79568862915039 33.10905861854553 31.79568862915039 33.10905861854553 C 31.79568862915039 33.10905861854553 30.235191345214844 33.12518149614334 30.235191345214844 33.12518149614334 C 30.235191345214844 33.12518149614334 29.949947357177734 34.680553555488586 29.949947357177734 34.680553555488586 C 29.949947357177734 34.680553555488586 29.533000946044922 36.953296542167664 29.533000946044922 36.953296542167664 C 29.533000946044922 36.953296542167664 27.382274627685547 36.18542021512985 27.382274627685547 36.18542021512985 C 27.382274627685547 36.18542021512985 25.913997650146484 35.66230082511902 25.913997650146484 35.66230082511902 C 25.913997650146484 35.66230082511902 25.122257232666016 37.01914781332016 25.122257232666016 37.01914781332016 C 25.122257232666016 37.01914781332016 23.961349487304688 39.008672058582306 23.961349487304688 39.008672058582306 C 23.961349487304688 39.008672058582306 22.200103759765625 37.53760516643524 22.200103759765625 37.53760516643524 C 22.200103759765625 37.53760516643524 20.99399185180664 36.53235346078873 20.99399185180664 36.53235346078873 C 20.99399185180664 36.53235346078873 19.788833618164062 37.53760516643524 19.788833618164062 37.53760516643524 C 19.788833618164062 37.53760516643524 18.02749252319336 39.008672058582306 18.02749252319336 39.008672058582306 C 18.02749252319336 39.008672058582306 16.865917205810547 37.01914781332016 16.865917205810547 37.01914781332016 C 16.865917205810547 37.01914781332016 16.073223114013672 35.66171807050705 16.073223114013672 35.66171807050705 C 16.073223114013672 35.66171807050705 14.60494613647461 36.18444895744324 14.60494613647461 36.18444895744324 C 14.60494613647461 36.18444895744324 12.452503204345703 36.95154827833176 12.452503204345703 36.95154827833176 C 12.452503204345703 36.95154827833176 12.036510467529297 34.67880529165268 12.036510467529297 34.67880529165268 C 12.036510467529297 34.67880529165268 11.751171112060547 33.12362748384476 11.751171112060547 33.12362748384476 C 11.751171112060547 33.12362748384476 10.190673828125 33.107310354709625 10.190673828125 33.107310354709625 C 10.190673828125 33.107310354709625 7.909198760986328 33.08477717638016 7.909198760986328 33.08477717638016 C 7.909198760986328 33.08477717638016 8.280750274658203 30.800767600536346 8.280750274658203 30.800767600536346 C 8.280750274658203 30.800767600536346 8.535381317138672 29.24151051044464 8.535381317138672 29.24151051044464 C 8.535381317138672 29.24151051044464 7.075592041015625 28.686339616775513 7.075592041015625 28.686339616775513 C 7.075592041015625 28.686339616775513 4.942699432373047 27.876699209213257 4.942699432373047 27.876699209213257 C 4.942699432373047 27.876699209213257 6.063362121582031 25.86639004945755 6.063362121582031 25.86639004945755 C 6.063362121582031 25.86639004945755 6.8295440673828125 24.490506410598755 6.8295440673828125 24.490506410598755 C 6.8295440673828125 24.490506410598755 5.6466064453125 23.461750268936157 5.6466064453125 23.461750268936157 C 5.6466064453125 23.461750268936157 3.913494110107422 21.955329596996307 3.913494110107422 21.955329596996307 C 3.913494110107422 21.955329596996307 5.648323059082031 20.44716066122055 5.648323059082031 20.44716066122055 C 5.648323059082031 20.44716066122055 6.830402374267578 19.418598771095276 6.830402374267578 19.418598771095276 C 6.830402374267578 19.418598771095276 6.064220428466797 18.043686389923096 6.064220428466797 18.043686389923096 C 6.064220428466797 18.043686389923096 4.9435577392578125 16.033182978630066 4.9435577392578125 16.033182978630066 C 4.9435577392578125 16.033182978630066 7.078166961669922 15.221988558769226 7.078166961669922 15.221988558769226 C 7.078166961669922 15.221988558769226 8.537097930908203 14.666817665100098 8.537097930908203 14.666817665100098 C 8.537097930908203 14.666817665100098 8.2833251953125 13.10872608423233 8.2833251953125 13.10872608423233 C 8.2833251953125 13.10872608423233 7.911773681640625 10.82607626914978 7.911773681640625 10.82607626914978 C 7.911773681640625 10.82607626914978 10.193248748779297 10.803543090820312 10.193248748779297 10.803543090820312 C 10.193248748779297 10.803543090820312 11.752887725830078 10.78722596168518 11.752887725830078 10.78722596168518 C 11.752887725830078 10.78722596168518 12.038227081298828 9.23282516002655 12.038227081298828 9.23282516002655 C 12.038227081298828 9.23282516002655 12.455078125 6.959305167198181 12.455078125 6.959305167198181 C 12.455078125 6.959305167198181 14.605804443359375 7.726210236549377 14.605804443359375 7.726210236549377 C 14.605804443359375 7.726210236549377 16.074081420898438 8.249329626560211 16.074081420898438 8.249329626560211 C 16.074081420898438 8.249329626560211 16.866775512695312 6.89248263835907 16.866775512695312 6.89248263835907 C 16.866775512695312 6.89248263835907 18.02749252319336 4.903929650783539 18.02749252319336 4.903929650783539 C 18.02749252319336 4.903929650783539 19.788833618164062 6.374025285243988 19.788833618164062 6.374025285243988 C 19.788833618164062 6.374025285243988 20.99399185180664 7.379276990890503 20.99399185180664 7.379276990890503 C 20.99399185180664 7.379276990890503 22.1993408203125 6.374025285243988 22.1993408203125 6.374025285243988 C 22.1993408203125 6.374025285243988 23.961349487304688 4.903929650783539 23.961349487304688 4.903929650783539 C 23.961349487304688 4.903929650783539 25.12311553955078 6.893259644508362 25.12311553955078 6.893259644508362 C 25.12311553955078 6.893259644508362 25.915714263916016 8.250300884246826 25.915714263916016 8.250300884246826 C 25.915714263916016 8.250300884246826 27.383991241455078 7.727375745773315 27.383991241455078 7.727375745773315 C 27.383991241455078 7.727375745773315 29.53557586669922 6.960276424884796 29.53557586669922 6.960276424884796 C 29.53557586669922 6.960276424884796 29.951663970947266 9.233990669250488 29.951663970947266 9.233990669250488 C 29.951663970947266 9.233990669250488 30.236907958984375 10.788002967834473 30.236907958984375 10.788002967834473 C 30.236907958984375 10.788002967834473 31.796546936035156 10.804514348506927 31.796546936035156 10.804514348506927 C 31.796546936035156 10.804514348506927 34.078880310058594 10.82801878452301 34.078880310058594 10.82801878452301 C 34.078880310058594 10.82801878452301 33.70732879638672 13.109503090381622 33.70732879638672 13.109503090381622 C 33.70732879638672 13.109503090381622 33.45269775390625 14.668760180473328 33.45269775390625 14.668760180473328 C 33.45269775390625 14.668760180473328 34.91162872314453 15.222765564918518 34.91162872314453 15.222765564918518 C 34.91162872314453 15.222765564918518 37.045379638671875 16.033959984779358 37.045379638671875 16.033959984779358 C 37.045379638671875 16.033959984779358 35.92462158203125 18.04524040222168 35.92462158203125 18.04524040222168 C 35.92462158203125 18.04524040222168 35.15853500366211 19.421318292617798 35.15853500366211 19.421318292617798 C 35.15853500366211 19.421318292617798 36.34147262573242 20.449880182743073 36.34147262573242 20.449880182743073 C 36.34147262573242 20.449880182743073 38.0745849609375 21.954358339309692 38.0745849609375 21.954358339309692 C 38.0745849609375 21.954358339309692 36.340614318847656 23.46446979045868 36.340614318847656 23.46446979045868 C 36.340614318847656 23.46446979045868 35.157676696777344 24.492254674434662 35.157676696777344 24.492254674434662 C 35.157676696777344 24.492254674434662 35.923858642578125 25.867167055606842 35.923858642578125 25.867167055606842 C 35.923858642578125 25.867167055606842 37.04452133178711 27.877670466899872 37.04452133178711 27.877670466899872 C 37.04452133178711 27.877670466899872 34.910770416259766 28.69080740213394 34.910770416259766 28.69080740213394 Z"></path></g></svg></svg>