<svg id="SvgjsSvg3096" width="46" height="33" xmlns="http://www.w3.org/2000/svg" version="1.1" xmlns:xlink="http://www.w3.org/1999/xlink" xmlns:svgjs="http://svgjs.com/svgjs" viewBox="0 0 46 33" fill="#f16d7f" opacity="1"><defs id="SvgjsDefs3097"></defs><svg version="1.1" xmlns="http://www.w3.org/2000/svg" xmlns:xlink="http://www.w3.org/1999/xlink" width="46" height="33"><g><path fill="#f16d7f" stroke="none" paint-order="stroke fill markers" fill-rule="evenodd" d=" M 12.137210845947266 27.361932635307312 C 11.624420166015625 27.361932635307312 11.208808898925781 27.782098710536957 11.208808898925781 28.29997330904007 C 11.208808898925781 28.797451496124268 10.80874252319336 29.202077448368073 10.316837310791016 29.202077448368073 C 9.82474136352539 29.202077448368073 9.424388885498047 28.797451496124268 9.424388885498047 28.29997330904007 C 9.424388885498047 27.802883625030518 9.82474136352539 27.39864617586136 10.316837310791016 27.39864617586136 C 10.829532623291016 27.39864617586136 11.24514389038086 26.978480100631714 11.24514389038086 26.460411250591278 C 11.24514389038086 25.942342400550842 10.829532623291016 25.52237057685852 10.316837310791016 25.52237057685852 C 8.801067352294922 25.52237057685852 7.56787109375 26.76829993724823 7.56787109375 28.29997330904007 C 7.56787109375 29.831840932369232 8.801067352294922 31.078158795833588 10.316837310791016 31.078158795833588 C 11.832321166992188 31.078158795833588 13.065422058105469 29.831840932369232 13.065422058105469 28.29997330904007 C 13.065422058105469 27.78171020746231 12.649810791015625 27.361932635307312 12.137210845947266 27.361932635307312 Z M 38.60081481933594 27.361932635307312 C 38.08811950683594 27.361932635307312 37.672508239746094 27.782098710536957 37.672508239746094 28.29997330904007 C 37.672508239746094 28.797451496124268 37.27234649658203 29.202077448368073 36.78053665161133 29.202077448368073 C 36.28834533691406 29.202077448368073 35.88799285888672 28.797451496124268 35.88799285888672 28.29997330904007 C 35.88799285888672 27.802883625030518 36.28834533691406 27.39864617586136 36.78053665161133 27.39864617586136 C 37.29313659667969 27.39864617586136 37.70884323120117 26.978480100631714 37.70884323120117 26.460411250591278 C 37.70884323120117 25.942342400550842 37.29313659667969 25.52237057685852 36.78053665161133 25.52237057685852 C 35.264671325683594 25.52237057685852 34.03147506713867 26.76829993724823 34.03147506713867 28.29997330904007 C 34.03147506713867 29.831840932369232 35.264671325683594 31.078158795833588 36.78053665161133 31.078158795833588 C 38.2960205078125 31.078158795833588 39.52902603149414 29.831840932369232 39.52902603149414 28.29997330904007 C 39.52902603149414 27.78171020746231 39.1134147644043 27.361932635307312 38.60081481933594 27.361932635307312 Z M 45.88774490356445 15.364957690238953 C 45.88774490356445 15.364957690238953 42.32872772216797 9.271286964416504 42.32872772216797 9.271286964416504 C 41.10821533203125 7.21319192647934 39.95646286010742 6.011357665061951 37.651145935058594 5.808170557022095 C 37.57551956176758 5.787968397140503 37.49607849121094 5.777284562587738 37.41415786743164 5.777284562587738 C 37.41415786743164 5.777284562587738 30.293548583984375 5.777284562587738 30.293548583984375 5.777284562587738 C 30.293548583984375 5.777284562587738 30.293548583984375 3.87187123298645 30.293548583984375 3.87187123298645 C 30.293548583984375 2.8372875452041626 29.460609436035156 1.995595633983612 28.437030792236328 1.995595633983612 C 28.437030792236328 1.995595633983612 2.886474609375 1.995595633983612 2.886474609375 1.995595633983612 C 1.8628959655761719 1.995595633983612 1.0299568176269531 2.8372875452041626 1.0299568176269531 3.87187123298645 C 1.0299568176269531 3.87187123298645 1.0299568176269531 27.361932635307312 1.0299568176269531 27.361932635307312 C 1.0299568176269531 28.396710574626923 1.8628959655761719 29.23820823431015 2.886474609375 29.23820823431015 C 2.886474609375 29.23820823431015 4.823291778564453 29.23820823431015 4.823291778564453 29.23820823431015 C 5.266941070556641 31.898288786411285 7.560909271240234 33.931519627571106 10.317218780517578 33.931519627571106 C 13.072956085205078 33.931519627571106 15.366352081298828 31.898288786411285 15.809906005859375 29.23820823431015 C 15.809906005859375 29.23820823431015 31.286991119384766 29.23820823431015 31.286991119384766 29.23820823431015 C 31.730545043945312 31.898288786411285 34.024513244628906 33.931519627571106 36.78091812133789 33.931519627571106 C 39.53656005859375 33.931519627571106 41.83005142211914 31.898288786411285 42.27350997924805 29.23820823431015 C 42.27350997924805 29.23820823431015 45.088279724121094 29.23820823431015 45.088279724121094 29.23820823431015 C 45.60087966918945 29.23820823431015 46.01658630371094 28.81823641061783 46.01658630371094 28.300167560577393 C 46.01658630371094 28.300167560577393 46.01658630371094 15.841845214366913 46.01658630371094 15.841845214366913 C 46.01658630371094 15.674206137657166 45.972049713134766 15.509480834007263 45.88774490356445 15.364957690238953 Z M 42.352474212646484 18.959776639938354 C 42.352474212646484 18.442290544509888 42.768943786621094 18.021735966205597 43.28078079223633 18.021735966205597 C 43.28078079223633 18.021735966205597 44.15997314453125 18.021735966205597 44.15997314453125 18.021735966205597 C 44.15997314453125 18.021735966205597 44.15997314453125 19.86848533153534 44.15997314453125 19.86848533153534 C 44.15997314453125 19.86848533153534 42.352474212646484 19.86848533153534 42.352474212646484 19.86848533153534 C 42.352474212646484 19.86848533153534 42.352474212646484 18.959776639938354 42.352474212646484 18.959776639938354 Z M 43.60321807861328 15.144870698451996 C 43.60321807861328 15.144870698451996 35.075557708740234 15.144870698451996 35.075557708740234 15.144870698451996 C 35.014427185058594 15.132050096988678 34.95100784301758 15.125445544719696 34.88615798950195 15.125445544719696 C 34.36392593383789 15.125445544719696 33.939064025878906 14.695761144161224 33.939064025878906 14.167979717254639 C 33.939064025878906 14.167979717254639 33.939064025878906 10.409212470054626 33.939064025878906 10.409212470054626 C 33.939064025878906 10.409212470054626 40.837467193603516 10.409212470054626 40.837467193603516 10.409212470054626 C 40.837467193603516 10.409212470054626 43.60321807861328 15.144870698451996 43.60321807861328 15.144870698451996 Z M 2.886474609375 3.87187123298645 C 2.886474609375 3.87187123298645 28.437030792236328 3.87187123298645 28.437030792236328 3.87187123298645 C 28.437030792236328 3.87187123298645 28.437030792236328 27.361932635307312 28.437030792236328 27.361932635307312 C 28.437030792236328 27.361932635307312 15.810001373291016 27.361932635307312 15.810001373291016 27.361932635307312 C 15.36673355102539 24.7020463347435 13.07314682006836 22.66881549358368 10.317218780517578 22.66881549358368 C 7.5606231689453125 22.66881549358368 5.266559600830078 24.7020463347435 4.8231964111328125 27.361932635307312 C 4.8231964111328125 27.361932635307312 2.886474609375 27.361932635307312 2.886474609375 27.361932635307312 C 2.886474609375 27.361932635307312 2.886474609375 3.87187123298645 2.886474609375 3.87187123298645 Z M 10.317218780517578 32.05524402856827 C 8.26815414428711 32.05524402856827 6.601131439208984 30.37069469690323 6.601131439208984 28.299779057502747 C 6.601131439208984 26.229640424251556 8.26815414428711 24.54470258951187 10.317218780517578 24.54470258951187 C 12.365615844726562 24.54470258951187 14.032257080078125 26.229640424251556 14.032257080078125 28.299779057502747 C 14.032257080078125 30.37069469690323 12.365615844726562 32.05524402856827 10.317218780517578 32.05524402856827 Z M 36.78091812133789 32.05524402856827 C 34.73175811767578 32.05524402856827 33.064735412597656 30.37069469690323 33.064735412597656 28.299779057502747 C 33.064735412597656 26.229640424251556 34.73175811767578 24.54470258951187 36.78091812133789 24.54470258951187 C 38.829219818115234 24.54470258951187 40.4958610534668 26.229640424251556 40.4958610534668 28.299779057502747 C 40.4958610534668 30.37069469690323 38.829315185546875 32.05524402856827 36.78091812133789 32.05524402856827 Z M 42.27360534667969 27.361932635307312 C 41.8304328918457 24.7020463347435 39.53675079345703 22.66881549358368 36.78091812133789 22.66881549358368 C 34.024227142333984 22.66881549358368 31.73016357421875 24.7020463347435 31.286895751953125 27.361932635307312 C 31.286895751953125 27.361932635307312 30.293548583984375 27.361932635307312 30.293548583984375 27.361932635307312 C 30.293548583984375 27.361932635307312 30.293548583984375 7.653560161590576 30.293548583984375 7.653560161590576 C 30.293548583984375 7.653560161590576 36.91624450683594 7.653560161590576 36.91624450683594 7.653560161590576 C 38.10099411010742 7.653560161590576 38.84085464477539 7.905892908573151 39.49354934692383 8.532936871051788 C 39.49354934692383 8.532936871051788 33.01075744628906 8.532936871051788 33.01075744628906 8.532936871051788 C 32.4981575012207 8.532936871051788 32.08245086669922 8.953102946281433 32.08245086669922 9.471366047859192 C 32.08245086669922 9.471366047859192 32.08245086669922 14.167979717254639 32.08245086669922 14.167979717254639 C 32.08245086669922 15.65244996547699 33.2174186706543 16.87370938062668 34.656227111816406 16.992202818393707 C 34.72975540161133 17.011045217514038 34.80681228637695 17.021146297454834 34.88615798950195 17.021146297454834 C 34.88615798950195 17.021146297454834 41.264808654785156 17.021146297454834 41.264808654785156 17.021146297454834 C 40.7888298034668 17.52620029449463 40.4958610534668 18.208800196647644 40.4958610534668 18.95938813686371 C 40.4958610534668 18.95938813686371 40.4958610534668 20.806526005268097 40.4958610534668 20.806526005268097 C 40.4958610534668 21.32440060377121 40.91156768798828 21.74437242746353 41.42416763305664 21.74437242746353 C 41.42416763305664 21.74437242746353 44.15997314453125 21.74437242746353 44.15997314453125 21.74437242746353 C 44.15997314453125 21.74437242746353 44.15997314453125 27.361932635307312 44.15997314453125 27.361932635307312 C 44.15997314453125 27.361932635307312 42.27360534667969 27.361932635307312 42.27360534667969 27.361932635307312 C 42.27360534667969 27.361932635307312 42.27360534667969 27.361932635307312 42.27360534667969 27.361932635307312 Z M 5.710113525390625 7.653560161590576 C 5.710113525390625 7.653560161590576 25.613391876220703 7.653560161590576 25.613391876220703 7.653560161590576 C 26.126087188720703 7.653560161590576 26.541793823242188 7.233588337898254 26.541793823242188 6.715325236320496 C 26.541793823242188 6.19725638628006 26.126087188720703 5.777284562587738 25.613391876220703 5.777284562587738 C 25.613391876220703 5.777284562587738 5.710113525390625 5.777284562587738 5.710113525390625 5.777284562587738 C 5.197418212890625 5.777284562587738 4.781711578369141 6.19725638628006 4.781711578369141 6.715325236320496 C 4.781711578369141 7.233588337898254 5.197418212890625 7.653560161590576 5.710113525390625 7.653560161590576 Z"></path></g></svg></svg>