<svg id="SvgjsSvg7882" width="49" height="36" xmlns="http://www.w3.org/2000/svg" version="1.1" xmlns:xlink="http://www.w3.org/1999/xlink" xmlns:svgjs="http://svgjs.com/svgjs" viewBox="0 0 49 36" fill="#f16d7f" opacity="1"><defs id="SvgjsDefs7883"></defs><svg version="1.1" xmlns="http://www.w3.org/2000/svg" xmlns:xlink="http://www.w3.org/1999/xlink" width="49" height="36"><g><path fill="#f16d7f" stroke="none" paint-order="stroke fill markers" fill-rule="evenodd" d=" M 43.39262008666992 9.531785190105438 C 40.829811096191406 9.531785190105438 38.74650955200195 11.56637579202652 38.74650955200195 14.064450562000275 C 38.74650955200195 15.404397666454315 39.354095458984375 16.599044620990753 40.30595779418945 17.429664194583893 C 40.30595779418945 17.429664194583893 34.44601058959961 19.485039710998535 34.44601058959961 19.485039710998535 C 34.44601058959961 19.485039710998535 26.106891632080078 9.802571833133698 26.106891632080078 9.802571833133698 C 27.90475845336914 9.176304876804352 29.203948974609375 7.5160369873046875 29.203948974609375 5.545937895774841 C 29.203948974609375 3.0463091135025024 27.120647430419922 1.01035875082016 24.55850601196289 1.01035875082016 C 21.999130249023438 1.01035875082016 19.91363525390625 3.0463091135025024 19.91363525390625 5.545937895774841 C 19.91363525390625 7.496611833572388 21.189937591552734 9.146972894668579 22.958526611328125 9.788197219371796 C 22.958526611328125 9.788197219371796 14.606056213378906 19.485039710998535 14.606056213378906 19.485039710998535 C 14.606056213378906 19.485039710998535 8.748207092285156 17.429664194583893 8.748207092285156 17.429664194583893 C 9.69949722290039 16.599044620990753 10.306320190429688 15.404397666454315 10.306320190429688 14.064450562000275 C 10.306320190429688 11.56637579202652 8.223114013671875 9.531785190105438 5.661640167236328 9.531785190105438 C 3.1016921997070312 9.531785190105438 1.0153388977050781 11.56637579202652 1.0153388977050781 14.064450562000275 C 1.0153388977050781 16.193058907985687 2.533588409423828 17.972597241401672 4.561767578125 18.458031833171844 C 4.561767578125 18.458031833171844 4.561767578125 30.74832659959793 4.561767578125 30.74832659959793 C 4.561767578125 30.834574282169342 4.5934295654296875 30.907807111740112 4.611835479736328 30.989587008953094 C 4.580173492431641 31.1129367351532 4.561767578125 31.242308259010315 4.561767578125 31.3773130774498 C 4.561767578125 35.78934824466705 22.481021881103516 35.91871976852417 24.523792266845703 35.91871976852417 C 26.564369201660156 35.91871976852417 44.485721588134766 35.78934824466705 44.485721588134766 31.3773130774498 C 44.485721588134766 31.242308259010315 44.46664810180664 31.1129367351532 44.43584442138672 30.989587008953094 C 44.4578742980957 30.907807111740112 44.485721588134766 30.834574282169342 44.485721588134766 30.74832659959793 C 44.485721588134766 30.74832659959793 44.485721588134766 18.458031833171844 44.485721588134766 18.458031833171844 C 46.51771545410156 17.972597241401672 48.03291320800781 16.193058907985687 48.03291320800781 14.064450562000275 C 48.03596496582031 11.56637579202652 45.9527587890625 9.531785190105438 43.39262008666992 9.531785190105438 Z M 22.17355728149414 5.547686159610748 C 22.17355728149414 4.263489246368408 23.24462890625 3.2180274724960327 24.55984115600586 3.2180274724960327 C 25.872859954833984 3.2180274724960327 26.944026947021484 4.263489246368408 26.944026947021484 5.547686159610748 C 26.944026947021484 6.831494569778442 25.872859954833984 7.875596582889557 24.55984115600586 7.875596582889557 C 23.24462890625 7.875596582889557 22.17355728149414 6.831494569778442 22.17355728149414 5.547686159610748 Z M 14.583358764648438 21.823245465755463 C 15.026054382324219 21.975538671016693 15.524921417236328 21.846167147159576 15.829429626464844 21.49321210384369 C 15.829429626464844 21.49321210384369 24.525318145751953 11.393880426883698 24.525318145751953 11.393880426883698 C 24.525318145751953 11.393880426883698 33.223304748535156 21.49321210384369 33.223304748535156 21.49321210384369 C 33.5264778137207 21.846167147159576 34.02372360229492 21.975538671016693 34.468040466308594 21.824605226516724 C 34.468040466308594 21.824605226516724 42.225894927978516 19.099450409412384 42.225894927978516 19.099450409412384 C 42.225894927978516 19.099450409412384 42.225894927978516 29.036193549633026 42.225894927978516 29.036193549633026 C 37.341365814208984 26.91457825899124 26.117191314697266 26.835906386375427 24.523792266845703 26.835906386375427 C 22.931251525878906 26.835906386375427 11.704788208007812 26.91457825899124 6.82159423828125 29.036193549633026 C 6.82159423828125 29.036193549633026 6.82159423828125 19.098090648651123 6.82159423828125 19.098090648651123 C 6.82159423828125 19.098090648651123 14.583358764648438 21.823245465755463 14.583358764648438 21.823245465755463 Z M 24.526844024658203 33.712799310684204 C 15.821990966796875 33.712799310684204 10.2777099609375 32.701720058918 7.969913482666016 31.851286828517914 C 7.516155242919922 31.68461900949478 7.177028656005859 31.519505202770233 6.973896026611328 31.3773130774498 C 7.6955413818359375 30.856136202812195 10.034809112548828 30.144787073135376 13.940296173095703 29.64556062221527 C 16.69384002685547 29.29182857275009 20.218143463134766 29.042021095752716 24.526844024658203 29.042021095752716 C 28.836021423339844 29.042021095752716 32.361183166503906 29.29182857275009 35.115394592285156 29.64556062221527 C 39.020023345947266 30.144787073135376 41.360816955566406 30.856136202812195 42.08026885986328 31.3773130774498 C 41.87732696533203 31.523584485054016 41.538963317871094 31.68461900949478 41.085777282714844 31.851286828517914 C 38.778743743896484 32.701720058918 33.235130310058594 33.712799310684204 24.526844024658203 33.712799310684204 Z M 3.279552459716797 14.064450562000275 C 3.279552459716797 12.782001912593842 4.350719451904297 11.737899899482727 5.666027069091797 11.737899899482727 C 6.981334686279297 11.737899899482727 8.050785064697266 12.782001912593842 8.050785064697266 14.064450562000275 C 8.050785064697266 15.348647475242615 6.981334686279297 16.39410924911499 5.666027069091797 16.39410924911499 C 4.350719451904297 16.39410924911499 3.279552459716797 15.348647475242615 3.279552459716797 14.064450562000275 Z M 43.39262008666992 16.39410924911499 C 42.07740783691406 16.39410924911499 41.0063362121582 15.348647475242615 41.0063362121582 14.064450562000275 C 41.0063362121582 12.782001912593842 42.07740783691406 11.737899899482727 43.39262008666992 11.737899899482727 C 44.70497131347656 11.737899899482727 45.77899932861328 12.782001912593842 45.77899932861328 14.064450562000275 C 45.77613830566406 15.348647475242615 44.70497131347656 16.39410924911499 43.39262008666992 16.39410924911499 Z"></path></g></svg></svg>